<svg xmlns="http://www.w3.org/2000/svg" viewBox="0 0 358.06 82"><defs><style>.cls-1{fill:#fff;}</style></defs><g id="Layer_2" data-name="Layer 2"><g id="Layer_1-2" data-name="Layer 1"><g id="Layer_2-2" data-name="Layer 2"><g id="Layer_1-2-2" data-name="Layer 1-2"><path class="cls-1" d="M321.53,33.17c-.17.46-.32.89-.47,1.26l-3.2,9h7.33L322,34.35A10.35,10.35,0,0,1,321.53,33.17Z"/><path class="cls-1" d="M237.71,33.17c-.16.46-.32.89-.47,1.26l-3.19,9h7.33l-3.23-9.13A9.6,9.6,0,0,1,237.71,33.17Z"/><path class="cls-1" d="M0,0V82H358.06V0ZM57.8,58.46H49.56V37.87L41.83,52.53a3.63,3.63,0,0,1-3.36,2.07h-1a3.64,3.64,0,0,1-3.37-2.09L26.34,37.8V58.46H18.1V22.27h7.24a3.3,3.3,0,0,1,.92.2,2.6,2.6,0,0,1,.84.55,3.78,3.78,0,0,1,.61.87l9.57,18.24c.24.44.46.89.68,1.35a15.87,15.87,0,0,1,.71-1.43l9.49-18.16a3.52,3.52,0,0,1,.65-.88,2.53,2.53,0,0,1,.83-.54,2.84,2.84,0,0,1,.91-.19H57.8ZM93.33,43.63a17,17,0,0,1-1.06,6.07,13.77,13.77,0,0,1-8,8,18.57,18.57,0,0,1-12.77,0,13.73,13.73,0,0,1-8-8,17,17,0,0,1-1.06-6.07V22.27h9.07V43.63A9.74,9.74,0,0,0,72,46.71a6.32,6.32,0,0,0,1.24,2.22,5.33,5.33,0,0,0,2,1.38,7.56,7.56,0,0,0,5.42,0,5.65,5.65,0,0,0,2-1.38,6.14,6.14,0,0,0,1.23-2.22,9.78,9.78,0,0,0,.45-3.08V22.27H93.4Zm27,14.83H98.07V22.27h9.07V50.71h13.22ZM144.75,30h-10V58.46h-9.09V30h-10V22.3h29.07Zm11.38,28.49H147V22.27h9.11Zm18.59-11.62H160.28V39.52h14.44ZM218.6,58.46h-8.24V37.87l-7.73,14.66a3.63,3.63,0,0,1-3.36,2.07h-1a3.64,3.64,0,0,1-3.37-2.09L187.14,37.8V58.46H178.9V22.27h7.24a3.3,3.3,0,0,1,.92.2,2.6,2.6,0,0,1,.84.55,3.78,3.78,0,0,1,.61.87l9.57,18.24c.24.44.46.89.68,1.35a15.87,15.87,0,0,1,.71-1.43L209,23.91a3.52,3.52,0,0,1,.65-.88,2.53,2.53,0,0,1,.83-.54,2.84,2.84,0,0,1,.91-.19h7.25Zm30.58,0a3.37,3.37,0,0,1-2.1-.64,3.49,3.49,0,0,1-1.18-1.53l-2.1-5.91H231.6l-2.08,5.86a3.74,3.74,0,0,1-1.13,1.51,3.25,3.25,0,0,1-2.12.71h-7l14.14-36.19H242l14.12,36.19Zm38.93,0h-4.65a3.85,3.85,0,0,1-3.27-1.57L265.07,37.65V58.46h-8.25V22.27h4.73a6.31,6.31,0,0,1,.87,0,3.23,3.23,0,0,1,.92.26,4,4,0,0,1,.72.5,8.18,8.18,0,0,1,.63.68L279.87,43V22.27h8.24Zm14.29,0h-9.12V22.27h9.12Zm30.59,0a3.32,3.32,0,0,1-2.09-.64,3.58,3.58,0,0,1-1.19-1.53l-2.09-5.91h-12.2l-2.08,5.86a3.74,3.74,0,0,1-1.13,1.51,3.25,3.25,0,0,1-2.12.71h-7l14.14-36.19h8.6L340,58.46Z"/></g></g></g></g></svg>