<svg xmlns="http://www.w3.org/2000/svg" viewBox="0 0 358.06 82"><defs><style>.cls-1{fill:#fff;}</style></defs><g id="Layer_2" data-name="Layer 2"><g id="Layer_1-2" data-name="Layer 1"><path class="cls-1" d="M321.53,33.17c-.17.46-.32.89-.47,1.26l-3.2,9h7.33L322,34.35C321.83,34,321.68,33.61,321.53,33.17Z"/><path class="cls-1" d="M237.71,33.17c-.16.46-.32.89-.47,1.26l-3.19,9h7.33l-3.23-9.13C238,34,237.86,33.61,237.71,33.17Z"/><path class="cls-1" d="M0,0V82H358.06V0ZM57.8,58.46H49.56V37.87L41.83,52.53a3.62,3.62,0,0,1-3.36,2.07h-1a3.65,3.65,0,0,1-3.37-2.09L26.34,37.8V58.46H18.1V22.27h6.37l.87,0a3.19,3.19,0,0,1,.92.2,2.55,2.55,0,0,1,.84.55,3.8,3.8,0,0,1,.61.87l9.57,18.24c.24.44.46.89.68,1.35.22-.49.46-1,.71-1.43l9.49-18.16a3.3,3.3,0,0,1,.65-.88,2.58,2.58,0,0,1,.83-.54,2.89,2.89,0,0,1,.91-.19c.24,0,.54,0,.88,0H57.8ZM93.33,43.63a16.79,16.79,0,0,1-1.06,6.07,14,14,0,0,1-3.09,4.83,14.19,14.19,0,0,1-4.86,3.18,18.6,18.6,0,0,1-12.77,0,14.09,14.09,0,0,1-4.88-3.18,14,14,0,0,1-3.09-4.83,17,17,0,0,1-1.06-6.07V22.27h9.07V43.63A9.79,9.79,0,0,0,72,46.71a6.22,6.22,0,0,0,1.24,2.22,5.4,5.4,0,0,0,2,1.38,7.59,7.59,0,0,0,5.42,0,5.58,5.58,0,0,0,2-1.38,6.2,6.2,0,0,0,1.23-2.22,9.78,9.78,0,0,0,.45-3.08V22.27h9.06Zm27,14.83H98.07V22.27h9.07V50.71h13.22ZM144.75,30h-10V58.46h-9.09V30h-10v-7.7h29.07Zm11.38,28.49H147V22.27h9.11Zm18.59-11.62H160.28V39.52h14.44ZM218.6,58.46h-8.24V37.87l-7.73,14.66a3.62,3.62,0,0,1-3.36,2.07h-1a3.65,3.65,0,0,1-3.37-2.09L187.14,37.8V58.46H178.9V22.27h6.37l.87,0a3.19,3.19,0,0,1,.92.2,2.55,2.55,0,0,1,.84.55,3.8,3.8,0,0,1,.61.87l9.57,18.24c.24.44.46.89.68,1.35.22-.49.46-1,.71-1.43L209,23.91a3.3,3.3,0,0,1,.65-.88,2.58,2.58,0,0,1,.83-.54,2.89,2.89,0,0,1,.91-.19c.24,0,.54,0,.88,0h6.37Zm30.58,0a3.36,3.36,0,0,1-2.1-.64,3.5,3.5,0,0,1-1.18-1.53l-2.1-5.91H231.6l-2.08,5.86a3.67,3.67,0,0,1-1.13,1.51,3.25,3.25,0,0,1-2.12.71h-7l14.14-36.19H242l14.12,36.19Zm38.93,0h-4.65a4.11,4.11,0,0,1-1.82-.37,4.18,4.18,0,0,1-1.45-1.2L265.07,37.65V58.46h-8.25V22.27h4.73a7.27,7.27,0,0,1,.87,0,3.06,3.06,0,0,1,.92.26,3.73,3.73,0,0,1,.72.5,7.37,7.37,0,0,1,.63.68L279.87,43V22.27h8.24Zm14.29,0h-9.12V22.27h9.12Zm30.59,0a3.33,3.33,0,0,1-2.09-.64,3.6,3.6,0,0,1-1.19-1.53l-2.09-5.91h-12.2l-2.08,5.86a3.67,3.67,0,0,1-1.13,1.51,3.27,3.27,0,0,1-2.12.71h-7l14.14-36.19h8.6L340,58.46Z"/></g></g></svg>